<svg xmlns="http://www.w3.org/2000/svg" viewBox="0 0 64 64" role="img" aria-label="Mafia favicon">
  <rect width="64" height="64" rx="14" fill="#09090b"/>
  <circle cx="32" cy="32" r="27" fill="#18181b" stroke="#ef4444" stroke-width="3"/>
  <path d="M22 19c2-9 18-9 20 0l2 5H20l2-5Z" fill="#09090b" stroke="#f8fafc" stroke-width="2" stroke-linejoin="round"/>
  <rect x="15" y="22" width="34" height="6" rx="2" fill="#f8fafc"/>
  <path d="M18 33c0-8 28-8 28 0v7c0 9-6 15-14 15s-14-6-14-15v-7Z" fill="#f8fafc"/>
  <ellipse cx="26" cy="38" rx="4.5" ry="2.8" fill="#09090b"/>
  <ellipse cx="38" cy="38" rx="4.5" ry="2.8" fill="#09090b"/>
  <path d="M32 40l-3 7h6l-3-7Z" fill="#ef4444"/>
  <path d="M25 49c4 3 10 3 14 0" fill="none" stroke="#09090b" stroke-width="2" stroke-linecap="round"/>
</svg>
